<svg width="1440" height="1024" viewBox="0 0 1440 1024" fill="none" xmlns="http://www.w3.org/2000/svg">
<g clip-path="url(#clip0_12238_320)">
<rect width="1440" height="1024" fill="white"/>
<path d="M569.6 585.835C560.159 581.792 559.828 568.53 569.056 564.021L638.025 530.326C641.782 528.49 644.312 524.831 644.704 520.669L651.873 444.539C652.831 434.368 665.248 429.969 672.395 437.269L726.166 492.193C729.072 495.161 733.304 496.415 737.357 495.51L812.549 478.715C822.552 476.48 830.571 487.005 825.762 496.056L789.916 563.528C787.946 567.236 788.058 571.704 790.21 575.31L829.378 640.909C834.632 649.709 827.148 660.621 817.046 658.888L741.11 645.865C737.017 645.163 732.852 646.627 730.099 649.736L679.134 707.274C672.36 714.921 659.739 711.147 658.275 701.037L647.317 625.36C646.718 621.222 644.008 617.694 640.164 616.048L569.6 585.835Z" fill="url(#paint0_radial_12238_320)"/>
<path d="M685.808 863.733C676.995 857.953 679.379 844.434 689.638 842.017L801.34 815.706C805.476 814.732 808.789 811.643 810.049 807.585L842.578 702.847C845.542 693.302 858.192 691.352 863.893 699.56L929.445 793.925C931.708 797.183 935.436 799.112 939.403 799.078L1057.35 798.075C1067.69 797.987 1073.29 810.144 1066.51 817.947L994.569 900.709C991.658 904.058 990.833 908.739 992.422 912.882L1031.72 1015.26C1035.42 1024.91 1026 1034.42 1016.31 1030.8L905.821 989.513C902.105 988.125 897.942 988.663 894.701 990.95L800.826 1057.2C792.661 1062.96 781.441 1056.8 781.921 1046.82L787.179 937.274C787.383 933.03 785.327 928.994 781.774 926.664L685.808 863.733Z" fill="url(#paint1_radial_12238_320)"/>
<path d="M872.101 379.86C863.778 373.843 866.368 360.831 876.36 358.46L951.046 340.734C955.114 339.768 958.386 336.755 959.683 332.779L983.396 260.083C986.564 250.371 999.645 248.806 1005.01 257.497L1045.41 322.89C1047.59 326.423 1051.45 328.577 1055.6 328.584L1132.64 328.712C1142.89 328.729 1148.4 340.758 1141.73 348.532L1091.94 406.484C1089.2 409.669 1088.33 414.053 1089.64 418.043L1113.44 490.643C1116.63 500.382 1106.94 509.384 1097.46 505.475L1026.24 476.092C1022.4 474.508 1018.02 475.022 1014.65 477.45L952.289 522.391C944.001 528.364 932.517 521.91 933.309 511.725L939.239 435.488C939.564 431.32 937.695 427.283 934.306 424.833L872.101 379.86Z" fill="url(#paint2_radial_12238_320)"/>
<path d="M566.827 196.45C556.807 193.491 555.091 180.03 564.048 174.653L644.521 126.34C648.144 124.165 650.356 120.243 650.344 116.017L650.078 24.8578C650.049 14.7874 661.688 9.16195 669.561 15.4417L743.283 74.2476C746.434 76.761 750.637 77.5247 754.47 76.2805L845.723 46.6672C855.527 43.4855 864.516 53.3297 860.458 62.8049L824.67 146.379C822.956 150.382 823.545 154.998 826.208 158.443L881.816 230.368C888.12 238.522 881.889 250.306 871.6 249.686L775.837 243.909C771.813 243.667 767.937 245.46 765.517 248.684L708.903 324.102C702.858 332.156 690.179 329.63 687.681 319.875L665.072 231.563C664.023 227.469 660.899 224.228 656.845 223.031L566.827 196.45Z" fill="url(#paint3_radial_12238_320)"/>
<path d="M518.44 449.519C528.089 453.037 529.146 466.262 520.18 471.269L453.162 508.695C449.511 510.734 447.185 514.525 447.022 518.704L444.037 595.112C443.638 605.32 431.48 610.393 423.944 603.496L367.243 551.601C364.179 548.798 359.884 547.777 355.887 548.903L281.729 569.795C271.864 572.574 263.28 562.505 267.585 553.204L299.679 483.869C301.442 480.058 301.086 475.602 298.739 472.121L256.035 408.767C250.306 400.268 257.181 388.962 267.362 390.139L343.898 398.98C348.023 399.456 352.102 397.766 354.681 394.511L402.415 334.266C408.759 326.259 421.569 329.335 423.584 339.35L438.674 414.313C439.499 418.412 442.398 421.786 446.326 423.219L518.44 449.519Z" fill="url(#paint4_radial_12238_320)"/>
<path d="M387.174 178.408C396.291 183.696 394.651 197.326 384.541 200.301L274.448 232.695C270.372 233.895 267.234 237.161 266.198 241.282L239.459 347.646C237.023 357.338 224.499 359.979 218.356 352.096L147.73 261.466C145.292 258.337 141.464 256.616 137.505 256.867L19.7891 264.333C9.47022 264.988 3.2096 253.157 9.55481 244.993L76.8508 158.412C79.5736 154.909 80.1413 150.189 78.3268 146.14L33.4811 46.0708C29.2526 36.6354 38.1402 26.6263 48.0095 29.709L160.598 64.8766C164.384 66.0594 168.511 65.2943 171.622 62.8326L261.724 -8.46494C269.561 -14.6665 281.101 -9.13105 281.17 0.862776L281.924 110.534C281.953 114.783 284.228 118.7 287.903 120.832L387.174 178.408Z" fill="url(#paint5_radial_12238_320)"/>
<path d="M227.685 671.765C236.326 677.317 234.453 690.451 224.605 693.367L151.004 715.16C146.995 716.347 143.893 719.536 142.816 723.576L123.123 797.463C120.492 807.334 107.517 809.613 101.68 801.229L57.7597 738.149C55.3869 734.741 51.4207 732.802 47.2738 733.023L-29.662 737.118C-39.8968 737.662 -46.0597 725.954 -39.8168 717.825L6.7209 657.231C9.27858 653.901 9.9095 649.476 8.38451 645.564L-19.3632 574.378C-23.0855 564.828 -13.8958 555.309 -4.22107 558.692L68.5043 584.127C72.4242 585.498 76.7742 584.745 80.005 582.136L139.805 533.844C147.753 527.426 159.574 533.241 159.341 543.454L157.599 619.901C157.503 624.081 159.591 628.009 163.108 630.269L227.685 671.765Z" fill="url(#paint6_radial_12238_320)"/>
<path d="M542.555 838.166C552.721 840.571 555.172 853.918 546.523 859.778L468.82 912.429C465.321 914.8 463.328 918.836 463.572 923.056L468.834 1014.06C469.416 1024.12 458.102 1030.37 449.897 1024.53L373.062 969.857C369.778 967.52 365.54 966.988 361.78 968.44L272.288 1003.01C262.673 1006.73 253.158 997.389 256.69 987.706L287.843 902.295C289.335 898.205 288.494 893.627 285.647 890.334L226.18 821.565C219.437 813.769 225.014 801.661 235.321 801.716L331.257 802.235C335.288 802.256 339.06 800.253 341.299 796.902L393.694 718.493C399.289 710.12 412.087 711.947 415.116 721.551L442.532 808.491C443.803 812.521 447.101 815.586 451.214 816.559L542.555 838.166Z" fill="url(#paint7_radial_12238_320)"/>
<path d="M1607.44 452.519C1617.09 456.037 1618.15 469.262 1609.18 474.269L1542.16 511.695C1538.51 513.734 1536.18 517.525 1536.02 521.704L1533.04 598.112C1532.64 608.32 1520.48 613.393 1512.94 606.496L1456.24 554.601C1453.18 551.798 1448.88 550.777 1444.89 551.903L1370.73 572.795C1360.86 575.574 1352.28 565.505 1356.59 556.204L1388.68 486.869C1390.44 483.058 1390.09 478.602 1387.74 475.121L1345.03 411.767C1339.31 403.268 1346.18 391.962 1356.36 393.139L1432.9 401.98C1437.02 402.456 1441.1 400.766 1443.68 397.511L1491.41 337.266C1497.76 329.259 1510.57 332.335 1512.58 342.35L1527.67 417.313C1528.5 421.412 1531.4 424.786 1535.33 426.219L1607.44 452.519Z" fill="url(#paint8_radial_12238_320)"/>
<path d="M1476.17 181.408C1485.29 186.696 1483.65 200.326 1473.54 203.301L1363.45 235.695C1359.37 236.895 1356.23 240.161 1355.2 244.282L1328.46 350.646C1326.02 360.338 1313.5 362.979 1307.36 355.096L1236.73 264.466C1234.29 261.337 1230.46 259.616 1226.51 259.867L1108.79 267.333C1098.47 267.988 1092.21 256.157 1098.55 247.993L1165.85 161.412C1168.57 157.909 1169.14 153.189 1167.33 149.14L1122.48 49.0708C1118.25 39.6354 1127.14 29.6263 1137.01 32.709L1249.6 67.8766C1253.38 69.0594 1257.51 68.2943 1260.62 65.8326L1350.72 -5.46494C1358.56 -11.6665 1370.1 -6.13105 1370.17 3.86278L1370.92 113.534C1370.95 117.783 1373.23 121.7 1376.9 123.832L1476.17 181.408Z" fill="url(#paint9_radial_12238_320)"/>
<path d="M1316.69 674.765C1325.33 680.317 1323.45 693.451 1313.61 696.367L1240 718.16C1235.99 719.347 1232.89 722.536 1231.82 726.576L1212.12 800.463C1209.49 810.334 1196.52 812.613 1190.68 804.229L1146.76 741.149C1144.39 737.741 1140.42 735.802 1136.27 736.023L1059.34 740.118C1049.1 740.662 1042.94 728.954 1049.18 720.825L1095.72 660.231C1098.28 656.901 1098.91 652.476 1097.38 648.564L1069.64 577.378C1065.91 567.828 1075.1 558.309 1084.78 561.692L1157.5 587.127C1161.42 588.498 1165.77 587.745 1169.01 585.136L1228.81 536.844C1236.75 530.426 1248.57 536.241 1248.34 546.454L1246.6 622.901C1246.5 627.081 1248.59 631.009 1252.11 633.269L1316.69 674.765Z" fill="url(#paint10_radial_12238_320)"/>
<path d="M1631.55 841.166C1641.72 843.571 1644.17 856.918 1635.52 862.778L1557.82 915.429C1554.32 917.8 1552.33 921.836 1552.57 926.056L1557.83 1017.06C1558.42 1027.12 1547.1 1033.37 1538.9 1027.53L1462.06 972.857C1458.78 970.52 1454.54 969.988 1450.78 971.44L1361.29 1006.01C1351.67 1009.73 1342.16 1000.39 1345.69 990.706L1376.84 905.295C1378.34 901.205 1377.49 896.627 1374.65 893.334L1315.18 824.565C1308.44 816.769 1314.01 804.661 1324.32 804.716L1420.26 805.235C1424.29 805.256 1428.06 803.253 1430.3 799.902L1482.69 721.493C1488.29 713.12 1501.09 714.947 1504.12 724.551L1531.53 811.491C1532.8 815.521 1536.1 818.586 1540.21 819.559L1631.55 841.166Z" fill="url(#paint11_radial_12238_320)"/>
</g>
<defs>
<radialGradient id="paint0_radial_12238_320" cx="0" cy="0" r="1" gradientUnits="userSpaceOnUse" gradientTransform="translate(708.507 571.454) rotate(-91.4297) scale(161.899 163.042)">
<stop offset="0.168269" stop-color="#949BF7"/>
<stop offset="0.923077" stop-color="white"/>
</radialGradient>
<radialGradient id="paint1_radial_12238_320" cx="0" cy="0" r="1" gradientUnits="userSpaceOnUse" gradientTransform="translate(883.661 887.427) rotate(-79.9992) scale(209.269 224.617)">
<stop offset="0.168269" stop-color="#949BF7"/>
<stop offset="0.923077" stop-color="white"/>
</radialGradient>
<radialGradient id="paint2_radial_12238_320" cx="0" cy="0" r="1" gradientUnits="userSpaceOnUse" gradientTransform="translate(1010.77 396.338) rotate(-78.7428) scale(161.899 163.042)">
<stop offset="0.100962" stop-color="#949BF7"/>
<stop offset="0.870192" stop-color="white"/>
</radialGradient>
<radialGradient id="paint3_radial_12238_320" cx="0" cy="0" r="1" gradientUnits="userSpaceOnUse" gradientTransform="translate(730.672 164.49) rotate(-97.2638) scale(182.456 191.582)">
<stop offset="0.168269" stop-color="#949BF7"/>
<stop offset="0.923077" stop-color="white"/>
</radialGradient>
<radialGradient id="paint4_radial_12238_320" cx="0" cy="0" r="1" gradientUnits="userSpaceOnUse" gradientTransform="translate(380.531 471.492) rotate(85.428) scale(161.899 163.042)">
<stop offset="0.168269" stop-color="#949BF7"/>
<stop offset="0.923077" stop-color="white"/>
</radialGradient>
<radialGradient id="paint5_radial_12238_320" cx="0" cy="0" r="1" gradientUnits="userSpaceOnUse" gradientTransform="translate(188.32 165.595) rotate(96.8585) scale(209.269 224.617)">
<stop offset="0.168269" stop-color="#949BF7"/>
<stop offset="0.923077" stop-color="white"/>
</radialGradient>
<radialGradient id="paint6_radial_12238_320" cx="0" cy="0" r="1" gradientUnits="userSpaceOnUse" gradientTransform="translate(88.3176 662.914) rotate(98.1149) scale(161.899 163.042)">
<stop offset="0.100962" stop-color="#949BF7"/>
<stop offset="0.870192" stop-color="white"/>
</radialGradient>
<radialGradient id="paint7_radial_12238_320" cx="0" cy="0" r="1" gradientUnits="userSpaceOnUse" gradientTransform="translate(380.707 879.059) rotate(79.5939) scale(182.456 191.582)">
<stop offset="0.168269" stop-color="#949BF7"/>
<stop offset="0.923077" stop-color="white"/>
</radialGradient>
<radialGradient id="paint8_radial_12238_320" cx="0" cy="0" r="1" gradientUnits="userSpaceOnUse" gradientTransform="translate(1469.53 474.492) rotate(85.428) scale(161.899 163.042)">
<stop offset="0.168269" stop-color="#949BF7"/>
<stop offset="0.923077" stop-color="white"/>
</radialGradient>
<radialGradient id="paint9_radial_12238_320" cx="0" cy="0" r="1" gradientUnits="userSpaceOnUse" gradientTransform="translate(1277.32 168.595) rotate(96.8585) scale(209.269 224.617)">
<stop offset="0.168269" stop-color="#949BF7"/>
<stop offset="0.923077" stop-color="white"/>
</radialGradient>
<radialGradient id="paint10_radial_12238_320" cx="0" cy="0" r="1" gradientUnits="userSpaceOnUse" gradientTransform="translate(1177.32 665.914) rotate(98.1149) scale(161.899 163.042)">
<stop offset="0.100962" stop-color="#949BF7"/>
<stop offset="0.870192" stop-color="white"/>
</radialGradient>
<radialGradient id="paint11_radial_12238_320" cx="0" cy="0" r="1" gradientUnits="userSpaceOnUse" gradientTransform="translate(1469.71 882.059) rotate(79.5939) scale(182.456 191.582)">
<stop offset="0.168269" stop-color="#949BF7"/>
<stop offset="0.923077" stop-color="white"/>
</radialGradient>
<clipPath id="clip0_12238_320">
<rect width="1440" height="1024" fill="white"/>
</clipPath>
</defs>
</svg>
